<svg width="42" height="42" viewBox="0 0 42 42" fill="none" xmlns="http://www.w3.org/2000/svg">
<path fill-rule="evenodd" clip-rule="evenodd" d="M20.2216 31.5998L12.1516 35.8498C11.7946 36.0335 11.3645 35.9997 11.0405 35.7626C10.7165 35.5254 10.5544 35.1256 10.6216 34.7298L12.1616 25.7298C12.2181 25.3846 12.1023 25.0336 11.8516 24.7898L5.32157 18.4698C5.03134 18.1879 4.92684 17.7655 5.05222 17.3808C5.1776 16.9962 5.511 16.7164 5.91157 16.6598L14.9116 15.3498C15.2582 15.3019 15.5582 15.0844 15.7116 14.7698L19.7116 6.58979C19.8904 6.22857 20.2585 6 20.6616 6C21.0646 6 21.4328 6.22857 21.6116 6.58979L25.6116 14.7698C25.7703 15.0798 26.0676 15.2954 26.4116 15.3498L35.4116 16.6598C35.8316 16.6788 36.2006 16.9442 36.3522 17.3364C36.5039 17.7285 36.4095 18.1731 36.1116 18.4698L29.5816 24.8298C29.3344 25.0756 29.2225 25.4263 29.2816 25.7698L30.8216 34.7698C30.8835 35.1663 30.7183 35.5642 30.3937 35.8003C30.0691 36.0363 29.6397 36.0709 29.2816 35.8898L21.2116 31.6398C20.9075 31.4669 20.5386 31.452 20.2216 31.5998V31.5998Z" stroke="black" stroke-linecap="round" stroke-linejoin="round"/>
</svg>
