<svg width="42" height="42" viewBox="0 0 42 42" fill="none" xmlns="http://www.w3.org/2000/svg">
<path d="M13.3143 30.2255L11.5383 31.2385C11.2823 31.3845 10.9643 31.2015 10.9623 30.9065L10.9363 27.2795C10.9353 27.1065 10.8203 26.9555 10.6533 26.9105L6.5293 25.7775C6.2373 25.6975 6.1473 25.3275 6.3703 25.1225L10.1503 21.6525C10.3553 21.4645 10.3003 21.1295 10.0473 21.0165L5.2283 18.8665C4.9063 18.7225 4.9303 18.2575 5.2663 18.1485L10.4913 16.4395C10.7213 16.3635 10.8253 16.0975 10.7083 15.8855L7.7143 10.4905C7.5313 10.1595 7.8853 9.78952 8.2243 9.95852L14.3013 12.9915C14.5353 13.1075 14.8143 12.9635 14.8543 12.7055L16.0063 5.32652C16.0613 4.97252 16.5273 4.87852 16.7153 5.18352L20.1773 10.8005C20.3283 11.0445 20.6833 11.0445 20.8333 10.8005L24.2953 5.18352C24.4833 4.87852 24.9493 4.97252 25.0043 5.32652L26.1563 12.7055C26.1963 12.9635 26.4763 13.1075 26.7093 12.9915L32.7873 9.95852C33.1263 9.78952 33.4803 10.1595 33.2963 10.4905L30.3023 15.8855C30.1853 16.0975 30.2893 16.3635 30.5203 16.4395L35.7453 18.1485C36.0803 18.2575 36.1043 18.7225 35.7823 18.8665L31.0103 20.9955C30.7453 21.1135 30.7013 21.4705 30.9283 21.6505L35.3003 25.1005C35.5523 25.2995 35.4643 25.7035 35.1503 25.7775L30.3703 26.9175C30.1973 26.9585 30.0753 27.1125 30.0743 27.2895L30.0493 30.9065C30.0473 31.2015 29.7283 31.3845 29.4723 31.2385L27.6383 30.1925" stroke="black"/>
<path fill-rule="evenodd" clip-rule="evenodd" d="M20.5054 36.9998V36.9998C16.4604 36.9998 13.1814 33.7208 13.1814 29.6758V21.1948C13.1814 17.1498 16.4604 13.8708 20.5054 13.8708V13.8708C24.5504 13.8708 27.8294 17.1498 27.8294 21.1948V29.6758C27.8294 33.7208 24.5504 36.9998 20.5054 36.9998Z" stroke="black"/>
<path fill-rule="evenodd" clip-rule="evenodd" d="M20.5064 23.478C20.5064 25.394 18.9534 26.947 17.0374 26.947C15.1214 26.947 13.5674 25.394 13.5674 23.478C13.5674 21.562 15.1214 20.009 17.0374 20.009C18.9534 20.009 20.5064 21.562 20.5064 23.478Z" stroke="black"/>
<path fill-rule="evenodd" clip-rule="evenodd" d="M17.8371 23.478C17.8371 23.92 17.4791 24.278 17.0371 24.278C16.5951 24.278 16.2371 23.92 16.2371 23.478C16.2371 23.036 16.5951 22.678 17.0371 22.678C17.4791 22.678 17.8371 23.036 17.8371 23.478Z" fill="black"/>
<path fill-rule="evenodd" clip-rule="evenodd" d="M27.4432 23.478C27.4432 25.394 25.8902 26.947 23.9742 26.947C22.0582 26.947 20.5042 25.394 20.5042 23.478C20.5042 21.562 22.0582 20.009 23.9742 20.009C25.8902 20.009 27.4432 21.562 27.4432 23.478Z" stroke="black"/>
<path fill-rule="evenodd" clip-rule="evenodd" d="M24.7738 23.478C24.7738 23.92 24.4158 24.278 23.9738 24.278C23.5318 24.278 23.1738 23.92 23.1738 23.478C23.1738 23.036 23.5318 22.678 23.9738 22.678C24.4158 22.678 24.7738 23.036 24.7738 23.478Z" fill="black"/>
<path d="M17.4216 32.0949C18.2496 32.7919 19.3196 33.2289 20.5056 33.2289C21.6916 33.2289 22.7616 32.7919 23.5896 32.0949" stroke="black" stroke-linecap="round"/>
<path d="M17.4216 17.6934H18.3246C18.7336 17.6934 19.1256 17.8554 19.4156 18.1454V18.1454C20.0176 18.7474 20.9936 18.7474 21.5956 18.1454V18.1454C21.8846 17.8554 22.2766 17.6934 22.6856 17.6934H23.5896" stroke="black" stroke-linecap="round"/>
<path d="M19.5454 28.6798V29.6398C19.5454 30.1698 19.9754 30.5998 20.5054 30.5998V30.5998C21.0354 30.5998 21.4654 30.1698 21.4654 29.6398V28.6798" stroke="black" stroke-linecap="round"/>
</svg>
