<svg width="16" height="16" viewBox="0 0 16 16" fill="none" xmlns="http://www.w3.org/2000/svg">
<path fill-rule="evenodd" clip-rule="evenodd" d="M4.1862 13.9328C4.02715 14.0124 3.83552 13.9977 3.69119 13.895C3.54686 13.7922 3.47461 13.619 3.50455 13.4475L4.19066 9.54817C4.21583 9.39863 4.16426 9.24655 4.05254 9.14091L1.14327 6.40269C1.01396 6.28058 0.967406 6.09754 1.02327 5.93088C1.07913 5.76423 1.22766 5.64303 1.40613 5.61848L5.41585 5.05091C5.5703 5.03014 5.70395 4.93591 5.77227 4.79962L7.55437 1.25553C7.63402 1.09903 7.79805 1 7.97762 1C8.15718 1 8.32121 1.09903 8.40087 1.25553L10.183 4.79962C10.2537 4.93395 10.3861 5.02733 10.5394 5.05091L14.5491 5.61848C14.7362 5.62673 14.9006 5.74173 14.9682 5.91161C15.0358 6.0815 14.9937 6.27416 14.861 6.40269L11.9517 9.15824C11.8416 9.26472 11.7917 9.41668 11.818 9.5655L12.5041 13.4649C12.5317 13.6367 12.4581 13.8091 12.3135 13.9113C12.1689 14.0136 11.9776 14.0286 11.818 13.9501L8.22266 12.1088C8.08719 12.0339 7.92282 12.0274 7.78159 12.0914L4.1862 13.9328Z" fill="#0000FF"/>
</svg>
